<svg width="12" height="14" viewBox="0 0 12 14" fill="none" xmlns="http://www.w3.org/2000/svg">
<path fill-rule="evenodd" clip-rule="evenodd" d="M5.64195 0.706221C5.8526 0.542384 6.14757 0.542384 6.35821 0.706221L11.6082 4.78955C11.7503 4.90007 11.8334 5.07 11.8334 5.25001V11.6667C11.8334 12.1308 11.649 12.5759 11.3209 12.9041C10.9927 13.2323 10.5475 13.4167 10.0834 13.4167H1.91675C1.45262 13.4167 1.0075 13.2323 0.679311 12.9041C0.351123 12.5759 0.166748 12.1308 0.166748 11.6667V5.25001C0.166748 5.07 0.249857 4.90007 0.391949 4.78955L5.64195 0.706221ZM1.33341 5.53531V11.6667C1.33341 11.8214 1.39487 11.9698 1.50427 12.0792C1.61367 12.1886 1.76204 12.25 1.91675 12.25H10.0834C10.2381 12.25 10.3865 12.1886 10.4959 12.0792C10.6053 11.9698 10.6667 11.8214 10.6667 11.6667V5.53531L6.00008 1.90568L1.33341 5.53531Z" fill="white"/>
<path fill-rule="evenodd" clip-rule="evenodd" d="M3.66675 7.00001C3.66675 6.67784 3.92792 6.41668 4.25008 6.41668H7.75008C8.07225 6.41668 8.33342 6.67784 8.33342 7.00001V12.8333C8.33342 13.1555 8.07225 13.4167 7.75008 13.4167C7.42792 13.4167 7.16675 13.1555 7.16675 12.8333V7.58334H4.83342V12.8333C4.83342 13.1555 4.57225 13.4167 4.25008 13.4167C3.92792 13.4167 3.66675 13.1555 3.66675 12.8333V7.00001Z" fill="white"/>
</svg>
